<svg width="25" height="25" viewBox="0 0 25 25" fill="none" xmlns="http://www.w3.org/2000/svg">
<rect x="0.362915" y="0.823242" width="24.1634" height="24.1634" rx="4" fill="#F8F9FA"/>
<path d="M14.581 10.7705C15.76 11.9495 15.76 13.8634 14.581 15.0444C13.4021 16.2234 11.4881 16.2234 10.3071 15.0444C9.12817 13.8654 9.12817 11.9515 10.3071 10.7705C11.4881 9.58952 13.4011 9.58952 14.581 10.7705" stroke="#B1B7BA" stroke-width="1.51021" stroke-linecap="round" stroke-linejoin="round"/>
<path fill-rule="evenodd" clip-rule="evenodd" d="M3.38333 12.9051C3.38333 12.2416 3.53637 11.5852 3.83237 10.9801V10.9801C5.35768 7.86198 8.72847 5.85742 12.4446 5.85742C16.1607 5.85742 19.5315 7.86198 21.0568 10.9801V10.9801C21.3528 11.5852 21.5059 12.2416 21.5059 12.9051C21.5059 13.5686 21.3528 14.225 21.0568 14.8301V14.8301C19.5315 17.9482 16.1607 19.9527 12.4446 19.9527C8.72847 19.9527 5.35768 17.9482 3.83237 14.8301V14.8301C3.53637 14.225 3.38333 13.5686 3.38333 12.9051Z" stroke="#B1B7BA" stroke-width="1.51021" stroke-linecap="round" stroke-linejoin="round"/>
</svg>
