<svg width="20" height="15" viewBox="0 0 20 15" fill="none" xmlns="http://www.w3.org/2000/svg">
<path fill-rule="evenodd" clip-rule="evenodd" d="M2.34375 0H17.6562C18.9486 0 20 1.05141 20 2.34375V12.3438C20 13.6361 18.9486 14.6875 17.6562 14.6875H2.34375C1.05141 14.6875 0 13.6361 0 12.3438V2.34375C0 1.05141 1.05141 0 2.34375 0ZM17.6562 13.125C18.087 13.125 18.4375 12.7745 18.4375 12.3438V2.8228L10 9.09867L1.5625 2.8228V12.3438C1.5625 12.7745 1.91297 13.125 2.34375 13.125H17.6562ZM2.48622 1.5625L10 7.15133L17.5138 1.5625H2.48622Z" fill="white"/>
</svg>
