<svg width="18" height="18" viewBox="0 0 18 18" fill="none" xmlns="http://www.w3.org/2000/svg">
<path d="M0 5.23029e-05H4.49999V4.50004H0V5.23029e-05Z" fill="white"/>
<path d="M0 6.75003H4.49999V11.25H0V6.75003Z" fill="white"/>
<path d="M0 13.5H4.49999V18H0V13.5Z" fill="white"/>
<path d="M6.74998 0H11.25V4.49999H6.74998V0Z" fill="white"/>
<path d="M6.74998 6.75003H11.25V11.25H6.74998V6.75003Z" fill="white"/>
<path d="M6.74998 13.5H11.25V18H6.74998V13.5Z" fill="white"/>
<path d="M13.5 5.23029e-05H17.9999V4.50004H13.5V5.23029e-05Z" fill="white"/>
<path d="M13.5 6.75003H17.9999V11.25H13.5V6.75003Z" fill="white"/>
<path d="M13.5 13.5H17.9999V18H13.5V13.5Z" fill="white"/>
</svg>
