<svg width="20" height="20" viewBox="0 0 20 20" fill="none" xmlns="http://www.w3.org/2000/svg">
<path d="M20 16.7188H16.7188V20H15.1562V16.7188H11.875V15.1562H15.1562V11.875H16.7188V15.1562H20V16.7188ZM11.6916 8.72803C11.7603 9.03702 11.7969 9.35806 11.7969 9.6875C11.7969 11.0371 11.1877 12.2472 10.2303 13.0574C10.2576 13.0682 10.2852 13.0788 10.3125 13.0899V14.8164C9.47601 14.3607 8.51776 14.1016 7.5 14.1016V14.1C7.48703 14.1003 7.47391 14.1003 7.46094 14.1006V14.1016C4.20853 14.1016 1.5625 16.7476 1.5625 20H0C0 16.8996 1.90125 14.2351 4.59885 13.1102C3.60474 12.3003 2.96875 11.0667 2.96875 9.6875C2.96875 7.25357 4.94888 5.27344 7.38281 5.27344C7.67212 5.27344 7.95486 5.30167 8.22876 5.35507C8.16101 5.04868 8.125 4.73053 8.125 4.40414C8.125 1.97571 10.1007 0 12.5291 0C14.9576 0 16.9333 1.97571 16.9333 4.40414C16.9333 5.76721 16.3107 6.98761 15.3352 7.79602C16.6248 8.30811 17.7362 9.16779 18.5503 10.2734H16.4468C15.4762 9.41315 14.2212 8.86719 12.8424 8.797C12.7388 8.80432 12.6344 8.80829 12.5291 8.80829C12.2427 8.80829 11.9627 8.78052 11.6916 8.72803ZM9.6875 4.40414C9.6875 5.97107 10.9622 7.24579 12.5291 7.24579C14.0959 7.24579 15.3708 5.97107 15.3708 4.40414C15.3708 2.83722 14.0959 1.5625 12.5291 1.5625C10.9622 1.5625 9.6875 2.83722 9.6875 4.40414ZM10.2344 9.6875C10.2344 8.11508 8.95523 6.83594 7.38281 6.83594C5.81039 6.83594 4.53125 8.11508 4.53125 9.6875C4.53125 11.2599 5.81039 12.5391 7.38281 12.5391C8.95523 12.5391 10.2344 11.2599 10.2344 9.6875Z" fill="white"/>
</svg>
